<svg width="147" height="150" viewBox="0 0 147 150" fill="none" xmlns="http://www.w3.org/2000/svg">
<circle cx="73.2457" cy="76.2605" r="69.6765" stroke="#4E4D6A" stroke-width="7" stroke-miterlimit="3.86874" stroke-dasharray="1 1"/>
<path d="M73.2456 10.084V4.41172" stroke="white" stroke-miterlimit="3.86874"/>
<path d="M146.608 76.2605H139.422" stroke="white" stroke-miterlimit="3.86874"/>
<path d="M7.06921 76.2605H1.14441e-05" stroke="white" stroke-miterlimit="3.86874"/>
<path d="M73.3759 149.5V142.437" stroke="white" stroke-miterlimit="3.86874"/>
<path d="M39.1954 141.166L42.6578 134.807" stroke="#75749B" stroke-miterlimit="3.86874"/>
<path d="M9.39877 112.308L15.6176 108.841" stroke="#75749B" stroke-miterlimit="3.86874"/>
<path d="M7.37016 44.1887L13.7522 47.2267" stroke="#75749B" stroke-miterlimit="3.86874"/>
<path d="M73.2456 0L75.9747 6.61765H70.5166L73.2456 0Z" fill="white"/>
<path d="M35.3672 13.5099L39.173 19.7596" stroke="#75749B" stroke-miterlimit="3.86874"/>
<path d="M107.455 19.5464L109.964 15.4978L111.246 13.5" stroke="#75749B" stroke-miterlimit="3.86874"/>
<path d="M131.746 45.5L134.746 44L138.008 42.2865" stroke="#75749B" stroke-miterlimit="3.86874"/>
<path d="M76.9833 13.4476V25.084H75.3697L69.4549 16.5499H69.347V25.084H67.5913V13.4476H69.2163L75.1367 21.9931H75.2447V13.4476H76.9833Z" fill="white"/>
<path d="M126.525 82V70.3636H128.28V80.4886H133.553V82H126.525Z" fill="white"/>
<path d="M74.8711 129.42C74.8105 128.883 74.5605 128.466 74.1211 128.17C73.6817 127.871 73.1287 127.722 72.462 127.722C71.9847 127.722 71.5719 127.797 71.2234 127.949C70.8749 128.097 70.604 128.301 70.4109 128.562C70.2215 128.82 70.1268 129.114 70.1268 129.443C70.1268 129.72 70.1912 129.958 70.32 130.159C70.4525 130.36 70.6249 130.528 70.837 130.665C71.0529 130.797 71.284 130.909 71.5302 131C71.7764 131.087 72.0131 131.159 72.2404 131.216L73.3768 131.511C73.748 131.602 74.1287 131.725 74.5188 131.881C74.909 132.036 75.2707 132.241 75.604 132.494C75.9374 132.748 76.2063 133.062 76.4109 133.438C76.6192 133.812 76.7234 134.261 76.7234 134.784C76.7234 135.443 76.5529 136.028 76.212 136.54C75.8749 137.051 75.3844 137.455 74.7404 137.75C74.1003 138.045 73.3256 138.193 72.4165 138.193C71.5453 138.193 70.7915 138.055 70.1552 137.778C69.5188 137.502 69.0207 137.11 68.6609 136.602C68.301 136.091 68.1022 135.485 68.0643 134.784H69.8256C69.8597 135.205 69.9961 135.555 70.2347 135.835C70.4772 136.112 70.7859 136.318 71.1609 136.455C71.5397 136.587 71.9544 136.653 72.4052 136.653C72.9014 136.653 73.3427 136.576 73.729 136.42C74.1192 136.261 74.426 136.042 74.6495 135.761C74.873 135.477 74.9847 135.146 74.9847 134.767C74.9847 134.422 74.8862 134.14 74.6893 133.92C74.4961 133.701 74.2328 133.519 73.8995 133.375C73.57 133.231 73.1969 133.104 72.7802 132.994L71.4052 132.619C70.4734 132.366 69.7347 131.992 69.1893 131.5C68.6476 131.008 68.3768 130.356 68.3768 129.545C68.3768 128.875 68.5586 128.29 68.9222 127.79C69.2859 127.29 69.7783 126.902 70.3995 126.625C71.0207 126.345 71.7215 126.205 72.5018 126.205C73.2897 126.205 73.9847 126.343 74.587 126.619C75.1931 126.896 75.6703 127.277 76.0188 127.761C76.3673 128.242 76.5491 128.795 76.5643 129.42H74.8711Z" fill="white"/>
<path d="M22.6325 76.1818C22.6325 77.4242 22.4052 78.4924 21.9506 79.3864C21.4961 80.2765 20.873 80.9621 20.0813 81.4432C19.2934 81.9205 18.3976 82.1591 17.3938 82.1591C16.3862 82.1591 15.4866 81.9205 14.695 81.4432C13.9071 80.9621 13.2859 80.2746 12.8313 79.3807C12.3768 78.4867 12.1495 77.4205 12.1495 76.1818C12.1495 74.9394 12.3768 73.8731 12.8313 72.983C13.2859 72.089 13.9071 71.4034 14.695 70.9261C15.4866 70.4451 16.3862 70.2045 17.3938 70.2045C18.3976 70.2045 19.2934 70.4451 20.0813 70.9261C20.873 71.4034 21.4961 72.089 21.9506 72.983C22.4052 73.8731 22.6325 74.9394 22.6325 76.1818ZM20.8938 76.1818C20.8938 75.2348 20.7404 74.4375 20.4336 73.7898C20.1306 73.1383 19.7139 72.6458 19.1836 72.3125C18.6571 71.9754 18.0605 71.8068 17.3938 71.8068C16.7234 71.8068 16.1249 71.9754 15.5984 72.3125C15.0719 72.6458 14.6552 73.1383 14.3484 73.7898C14.0453 74.4375 13.8938 75.2348 13.8938 76.1818C13.8938 77.1288 14.0453 77.928 14.3484 78.5795C14.6552 79.2273 15.0719 79.7197 15.5984 80.0568C16.1249 80.3902 16.7234 80.5568 17.3938 80.5568C18.0605 80.5568 18.6571 80.3902 19.1836 80.0568C19.7139 79.7197 20.1306 79.2273 20.4336 78.5795C20.7404 77.928 20.8938 77.1288 20.8938 76.1818Z" fill="white"/>
<path d="M139.246 108.5L132.746 105" stroke="#75749B" stroke-miterlimit="3.86874"/>
<path d="M111.246 139L107.246 133" stroke="#75749B" stroke-miterlimit="3.86874"/>
</svg>
